<svg width="137" height="51" viewBox="0 0 137 51" fill="none" xmlns="http://www.w3.org/2000/svg">
<path d="M15.361 4.3532C15.868 3.84613 16.6901 3.84613 17.1972 4.3532L21.3289 8.48488C21.836 8.99195 21.836 9.81407 21.3289 10.3211C20.8218 10.8282 19.9997 10.8282 19.4926 10.3211L15.361 6.18946C14.8539 5.68239 14.8539 4.86027 15.361 4.3532Z" fill="#AC61FF"/>
<path d="M5.22923 14.4849C4.72216 14.992 4.72216 15.8141 5.22923 16.3212L9.36092 20.4529C9.86798 20.9599 10.6901 20.9599 11.1972 20.4529C11.7042 19.9458 11.7042 19.1237 11.1972 18.6166L7.06549 14.4849C6.55842 13.9779 5.7363 13.9779 5.22923 14.4849Z" fill="#AC61FF"/>
<path d="M15.361 4.3532C15.868 3.84613 16.6901 3.84613 17.1972 4.3532L21.3289 8.48488C21.836 8.99195 21.836 9.81407 21.3289 10.3211C20.8218 10.8282 19.9997 10.8282 19.4926 10.3211L15.361 6.18946C14.8539 5.68239 14.8539 4.86027 15.361 4.3532Z" fill="#AC61FF"/>
<path d="M5.22923 14.4849C4.72216 14.992 4.72216 15.8141 5.22923 16.3212L9.36092 20.4529C9.86798 20.9599 10.6901 20.9599 11.1972 20.4529C11.7042 19.9458 11.7042 19.1237 11.1972 18.6166L7.06549 14.4849C6.55842 13.9779 5.7363 13.9779 5.22923 14.4849Z" fill="#AC61FF"/>
<path d="M31.4223 40.6786C30.9152 41.1856 30.9152 42.0078 31.4223 42.5148L35.5539 46.6465C36.061 47.1536 36.8831 47.1536 37.3902 46.6465C37.8973 46.1394 37.8973 45.3173 37.3902 44.8103L33.2585 40.6786C32.7515 40.1715 31.9293 40.1715 31.4223 40.6786Z" fill="#AC61FF"/>
<path d="M41.5542 30.5468C42.0612 30.0398 42.8834 30.0398 43.3904 30.5468L47.5221 34.6785C48.0292 35.1856 48.0292 36.0077 47.5221 36.5148C47.015 37.0219 46.1929 37.0219 45.6859 36.5148L41.5542 32.3831C41.0471 31.876 41.0471 31.0539 41.5542 30.5468Z" fill="#AC61FF"/>
<path d="M41.5542 30.5468C42.0612 30.0398 42.8834 30.0398 43.3904 30.5468L47.5221 34.6785C48.0292 35.1856 48.0292 36.0077 47.5221 36.5148C47.015 37.0219 46.1929 37.0219 45.6859 36.5148L41.5542 32.3831C41.0471 31.876 41.0471 31.0539 41.5542 30.5468Z" fill="#AC61FF"/>
<path d="M31.4223 40.6786C30.9152 41.1856 30.9152 42.0078 31.4223 42.5148L35.5539 46.6465C36.061 47.1536 36.8831 47.1536 37.3902 46.6465C37.8973 46.1394 37.8973 45.3173 37.3902 44.8103L33.2585 40.6786C32.7515 40.1715 31.9293 40.1715 31.4223 40.6786Z" fill="#AC61FF"/>
<path fill-rule="evenodd" clip-rule="evenodd" d="M22.5498 21.6747C24.6628 19.5617 28.0887 19.5617 30.2017 21.6747C32.3147 23.7877 32.3147 27.2136 30.2017 29.3266C28.0887 31.4396 24.6628 31.4396 22.5498 29.3266C20.4368 27.2136 20.4368 23.7877 22.5498 21.6747ZM28.3747 23.5016C27.2707 22.3976 25.4808 22.3976 24.3767 23.5016C23.2727 24.6057 23.2727 26.3956 24.3767 27.4996C25.4808 28.6037 27.2707 28.6037 28.3747 27.4996C29.4788 26.3956 29.4788 24.6057 28.3747 23.5016Z" fill="#AC61FF"/>
<path fill-rule="evenodd" clip-rule="evenodd" d="M27.6743 1.35312C27.6743 0.636016 27.0929 0.0546875 26.3758 0.0546875C25.6587 0.0546875 25.0774 0.636016 25.0774 1.35312L25.0774 14.0797C22.9871 14.3159 20.9493 15.1247 19.2179 16.506L8.79978 6.08784C8.29271 5.58077 7.47059 5.58078 6.96352 6.08785C6.45645 6.59492 6.45645 7.41704 6.96352 7.92411L17.3816 18.3422C16.0001 20.0736 15.1912 22.1115 14.9549 24.2019H2.22861C1.5115 24.2019 0.930176 24.7832 0.930176 25.5003C0.930176 26.2174 1.5115 26.7987 2.22861 26.7987H14.9548C15.2368 29.294 16.3346 31.7145 18.2482 33.6281C20.1618 35.5417 22.5822 36.6395 25.0774 36.9215V49.6478C25.0774 50.3649 25.6587 50.9462 26.3758 50.9462C27.0929 50.9462 27.6743 50.3649 27.6743 49.6478V36.9215C29.7647 36.6852 31.8027 35.8763 33.5341 34.4947L43.9519 44.9125C44.459 45.4196 45.2811 45.4196 45.7882 44.9125C46.2952 44.4054 46.2952 43.5833 45.7882 43.0762L35.3703 32.6584C36.7517 30.927 37.5605 28.8891 37.7967 26.7987H50.5233C51.2404 26.7987 51.8218 26.2174 51.8218 25.5003C51.8218 24.7832 51.2404 24.2019 50.5233 24.2019L37.7966 24.2019C37.5145 21.7069 36.4167 19.2866 34.5033 17.3731C32.5897 15.4595 30.1693 14.3617 27.6743 14.0797V1.35312ZM20.0752 19.2C23.5549 15.7203 29.1966 15.7203 32.6763 19.2C36.156 22.6797 36.156 28.3215 32.6763 31.8012C29.1966 35.2809 23.5549 35.2809 20.0752 31.8012C16.5955 28.3215 16.5955 22.6797 20.0752 19.2Z" fill="#AC61FF"/>
<path d="M36.0823 13.9577C35.5752 14.4648 35.5752 15.2869 36.0823 15.794C36.5893 16.301 37.4115 16.301 37.9185 15.794L45.7884 7.92408C46.2955 7.41702 46.2955 6.59489 45.7884 6.08782C45.2813 5.58075 44.4592 5.58075 43.9521 6.08782L36.0823 13.9577Z" fill="#AC61FF"/>
<path d="M6.96351 43.0763C6.45644 43.5833 6.45644 44.4055 6.96351 44.9125C7.47058 45.4196 8.2927 45.4196 8.79977 44.9125L16.8009 36.9114C17.308 36.4043 17.308 35.5822 16.8009 35.0751C16.2938 34.5681 15.4717 34.5681 14.9646 35.0751L6.96351 43.0763Z" fill="#AC61FF"/>
<path d="M60.7314 33.6353V17.5031H69.512C70.5721 17.5031 71.5247 17.7336 72.3697 18.1945C73.2147 18.6554 73.883 19.2853 74.3747 20.0843C74.8817 20.8832 75.1352 21.782 75.1352 22.7806C75.1352 23.8561 74.8663 24.8164 74.3286 25.6614C73.8062 26.5064 73.0995 27.1747 72.2084 27.6664C71.3326 28.1427 70.3339 28.3808 69.2124 28.3808H64.6493V33.6353H60.7314ZM64.5801 24.947H68.544C69.005 24.947 69.4198 24.8548 69.7885 24.6704C70.1726 24.486 70.4722 24.2402 70.6873 23.9329C70.9178 23.6103 71.033 23.2492 71.033 22.8498C71.033 22.4503 70.9178 22.1123 70.6873 21.8358C70.4722 21.5592 70.1726 21.3441 69.7885 21.1905C69.4198 21.0368 69.005 20.96 68.544 20.96H64.5801V24.947Z" fill="white"/>
<path d="M83.4624 33.8888C82.433 33.8888 81.5342 33.666 80.766 33.2205C80.0131 32.7596 79.4293 32.0989 79.0145 31.2385C78.615 30.3628 78.4153 29.3103 78.4153 28.0812V21.3979H82.1026V27.4129C82.1026 28.1196 82.1948 28.7111 82.3792 29.1874C82.5789 29.6637 82.8862 30.0248 83.301 30.2706C83.7159 30.5164 84.2459 30.6393 84.8912 30.6393C85.3368 30.6393 85.7516 30.5702 86.1357 30.4319C86.5198 30.2936 86.8578 30.0939 87.1497 29.8327C87.457 29.5715 87.6951 29.2642 87.8641 28.9109C88.0331 28.5421 88.1176 28.1273 88.1176 27.6664V21.3979H91.805V33.6353H88.3481L88.1868 31.1233L88.8551 30.8467C88.6707 31.3691 88.3327 31.8608 87.8411 32.3217C87.3494 32.7826 86.7272 33.159 85.9744 33.4509C85.2369 33.7429 84.3996 33.8888 83.4624 33.8888Z" fill="white"/>
<path d="M95.488 33.6353L94.6353 31.4229L99.4289 26.975C99.8284 26.6216 100.243 26.2375 100.673 25.8227C101.104 25.4079 101.495 24.9931 101.849 24.5782C102.217 24.148 102.509 23.7332 102.724 23.3337C102.94 22.9343 103.047 22.5655 103.047 22.2275C103.047 21.9049 102.97 21.6207 102.817 21.3748C102.663 21.129 102.433 20.937 102.125 20.7987C101.833 20.6604 101.472 20.5913 101.042 20.5913C100.612 20.5913 100.182 20.6758 99.7515 20.8448C99.3367 21.0138 98.9296 21.2903 98.5301 21.6744C98.146 22.0432 97.7696 22.5271 97.4009 23.1263L94.5201 21.467C94.981 20.6527 95.5495 19.9153 96.2255 19.2546C96.9169 18.594 97.7081 18.0793 98.5993 17.7105C99.4904 17.3264 100.451 17.1344 101.48 17.1344C102.54 17.1344 103.477 17.3341 104.292 17.7336C105.121 18.133 105.767 18.6785 106.227 19.3698C106.704 20.0612 106.942 20.8601 106.942 21.7666C106.942 22.2275 106.865 22.6885 106.711 23.1494C106.573 23.5949 106.358 24.0405 106.066 24.486C105.79 24.9162 105.467 25.3541 105.098 25.7997C104.745 26.2452 104.353 26.6831 103.923 27.1133C103.493 27.5281 103.047 27.9506 102.586 28.3808L98.461 32.1373L98.2766 30.1784H107.656V33.6353H95.488Z" fill="white"/>
<path d="M115.108 33.8658C113.557 33.8658 112.228 33.5508 111.122 32.9209C110.015 32.2756 109.07 31.3768 108.287 30.2245L111.098 28.1965C111.375 28.6113 111.705 29.0031 112.089 29.3718C112.474 29.7405 112.911 30.0401 113.403 30.2706C113.91 30.501 114.471 30.6163 115.085 30.6163C115.669 30.6163 116.207 30.5395 116.699 30.3858C117.19 30.2168 117.59 29.9633 117.897 29.6253C118.204 29.2873 118.358 28.8648 118.358 28.3578C118.358 27.8508 118.212 27.4513 117.92 27.1594C117.628 26.8521 117.252 26.6293 116.791 26.491C116.345 26.3528 115.884 26.2836 115.408 26.2836C115.147 26.2836 114.886 26.3067 114.624 26.3528C114.379 26.3835 114.141 26.4296 113.91 26.491C113.695 26.5525 113.495 26.6293 113.311 26.7215L112.343 24.5552L116.998 20.1304L117.62 20.7987L109.416 20.6604V17.3648H120.801L121.538 19.3468L115.454 25.1083L114.532 23.5642C114.701 23.5027 114.963 23.4567 115.316 23.4259C115.685 23.3798 116.069 23.3568 116.468 23.3568C117.19 23.3568 117.882 23.4797 118.542 23.7255C119.203 23.9714 119.787 24.317 120.294 24.7626C120.816 25.2082 121.223 25.7305 121.515 26.3297C121.823 26.9289 121.976 27.5742 121.976 28.2656C121.976 29.3718 121.669 30.3474 121.054 31.1924C120.44 32.0374 119.61 32.6981 118.565 33.1744C117.536 33.6353 116.384 33.8658 115.108 33.8658Z" fill="white"/>
<path d="M127.627 33.6353L127.535 33.4048L133.596 23.2185L134.126 24.463C133.911 24.9854 133.612 25.4847 133.227 25.961C132.843 26.4219 132.398 26.8291 131.891 27.1824C131.384 27.5204 130.846 27.7893 130.278 27.989C129.724 28.1888 129.156 28.2886 128.572 28.2886C127.604 28.2886 126.729 28.0505 125.945 27.5742C125.161 27.0826 124.531 26.4373 124.055 25.6383C123.594 24.8394 123.364 23.979 123.364 23.0572C123.364 21.9356 123.656 20.9293 124.24 20.0382C124.839 19.1317 125.638 18.4173 126.636 17.8949C127.635 17.3725 128.749 17.1113 129.978 17.1113C130.854 17.1113 131.676 17.2573 132.444 17.5492C133.212 17.8411 133.896 18.2483 134.495 18.7706C135.094 19.2777 135.555 19.8692 135.878 20.5452C136.216 21.2058 136.385 21.9203 136.385 22.6885C136.385 23.303 136.3 23.9176 136.131 24.5321C135.978 25.1467 135.755 25.7536 135.463 26.3528C135.186 26.952 134.887 27.5281 134.564 28.0812C134.257 28.619 133.957 29.1337 133.665 29.6253L131.338 33.6353H127.627ZM129.724 25.1774C130.37 25.1774 130.923 25.0699 131.384 24.8548C131.845 24.6243 132.198 24.3324 132.444 23.979C132.69 23.6103 132.813 23.2185 132.813 22.8037C132.813 22.3581 132.682 21.951 132.421 21.5823C132.175 21.1982 131.822 20.8986 131.361 20.6835C130.915 20.453 130.377 20.3378 129.748 20.3378C129.21 20.3378 128.71 20.4376 128.25 20.6374C127.804 20.8217 127.443 21.0983 127.166 21.467C126.89 21.8358 126.752 22.2813 126.752 22.8037C126.752 23.1878 126.874 23.5642 127.12 23.9329C127.381 24.3017 127.735 24.6013 128.18 24.8317C128.626 25.0622 129.141 25.1774 129.724 25.1774Z" fill="white"/>
</svg>
