<svg width="86" height="86" viewBox="0 0 86 86" fill="none" xmlns="http://www.w3.org/2000/svg">
<path d="M24.1382 7.67944C24.9851 6.83253 26.3582 6.83253 27.2051 7.67945L34.1059 14.5803C34.9529 15.4272 34.9529 16.8003 34.1059 17.6472C33.259 18.4941 31.8859 18.4941 31.039 17.6472L24.1382 10.7464C23.2913 9.89948 23.2913 8.52636 24.1382 7.67944Z" fill="#AC61FF"/>
<path d="M7.216 24.6016C6.36909 25.4485 6.36909 26.8217 7.216 27.6686L14.1168 34.5694C14.9637 35.4163 16.3368 35.4163 17.1838 34.5694C18.0307 33.7225 18.0307 32.3493 17.1838 31.5024L10.283 24.6016C9.43604 23.7547 8.06292 23.7547 7.216 24.6016Z" fill="#AC61FF"/>
<path d="M24.1382 7.67944C24.9851 6.83253 26.3582 6.83253 27.2051 7.67945L34.1059 14.5803C34.9529 15.4272 34.9529 16.8003 34.1059 17.6472C33.259 18.4941 31.8859 18.4941 31.039 17.6472L24.1382 10.7464C23.2913 9.89948 23.2913 8.52636 24.1382 7.67944Z" fill="#AC61FF"/>
<path d="M7.216 24.6016C6.36909 25.4485 6.36909 26.8217 7.216 27.6686L14.1168 34.5694C14.9637 35.4163 16.3368 35.4163 17.1838 34.5694C18.0307 33.7225 18.0307 32.3493 17.1838 31.5024L10.283 24.6016C9.43604 23.7547 8.06292 23.7547 7.216 24.6016Z" fill="#AC61FF"/>
<path d="M50.964 68.3507C50.1171 69.1976 50.1171 70.5707 50.964 71.4177L57.8649 78.3185C58.7118 79.1654 60.0849 79.1654 60.9318 78.3185C61.7787 77.4715 61.7787 76.0984 60.9318 75.2515L54.031 68.3507C53.1841 67.5038 51.811 67.5038 50.964 68.3507Z" fill="#AC61FF"/>
<path d="M67.8865 51.4285C68.7335 50.5816 70.1066 50.5816 70.9535 51.4285L77.8543 58.3293C78.7012 59.1762 78.7012 60.5494 77.8543 61.3963C77.0074 62.2432 75.6343 62.2432 74.7873 61.3963L67.8865 54.4955C67.0396 53.6486 67.0396 52.2754 67.8865 51.4285Z" fill="#AC61FF"/>
<path d="M67.8865 51.4285C68.7335 50.5816 70.1066 50.5816 70.9535 51.4285L77.8543 58.3293C78.7012 59.1762 78.7012 60.5494 77.8543 61.3963C77.0074 62.2432 75.6343 62.2432 74.7873 61.3963L67.8865 54.4955C67.0396 53.6486 67.0396 52.2754 67.8865 51.4285Z" fill="#AC61FF"/>
<path d="M50.964 68.3507C50.1171 69.1976 50.1171 70.5707 50.964 71.4177L57.8649 78.3185C58.7118 79.1654 60.0849 79.1654 60.9318 78.3185C61.7787 77.4715 61.7787 76.0984 60.9318 75.2515L54.031 68.3507C53.1841 67.5038 51.811 67.5038 50.964 68.3507Z" fill="#AC61FF"/>
<path fill-rule="evenodd" clip-rule="evenodd" d="M36.1451 36.6101C39.6743 33.0809 45.3962 33.0809 48.9254 36.6101C52.4546 40.1393 52.4546 45.8612 48.9254 49.3904C45.3962 52.9196 39.6743 52.9196 36.1451 49.3904C32.6159 45.8612 32.6159 40.1393 36.1451 36.6101ZM45.874 39.6615C44.0301 37.8175 41.0404 37.8175 39.1965 39.6615C37.3526 41.5054 37.3526 44.4951 39.1965 46.339C41.0404 48.183 44.0301 48.183 45.874 46.339C47.718 44.4951 47.718 41.5054 45.874 39.6615Z" fill="#AC61FF"/>
<path fill-rule="evenodd" clip-rule="evenodd" d="M44.7041 2.66867C44.7041 1.47095 43.7331 0.5 42.5354 0.5C41.3376 0.5 40.3667 1.47094 40.3667 2.66867L40.3667 23.9248C36.8755 24.3194 33.4719 25.6702 30.5802 27.9773L13.1796 10.5767C12.3327 9.72976 10.9596 9.72977 10.1126 10.5767C9.26573 11.4236 9.26573 12.7967 10.1126 13.6436L27.5131 31.0441C25.2057 33.9359 23.8547 37.3397 23.4599 40.831H2.2043C1.00658 40.831 0.0356445 41.802 0.0356445 42.9997C0.0356445 44.1974 1.00659 45.1684 2.20431 45.1684H23.4598C23.9308 49.3359 25.7644 53.3787 28.9606 56.5749C32.1566 59.771 36.1993 61.6046 40.3667 62.0756V83.3312C40.3667 84.5289 41.3376 85.4998 42.5354 85.4998C43.7331 85.4998 44.7041 84.5289 44.7041 83.3312V62.0756C48.1956 61.6809 51.5995 60.3298 54.4913 58.0223L71.8913 75.4223C72.7382 76.2692 74.1113 76.2692 74.9582 75.4223C75.8051 74.5753 75.8051 73.2022 74.9582 72.3553L57.5582 54.9553C59.8653 52.0635 61.2162 48.6597 61.6107 45.1684H82.867C84.0647 45.1684 85.0356 44.1974 85.0356 42.9997C85.0356 41.802 84.0647 40.831 82.867 40.831L61.6106 40.831C61.1395 36.6638 59.3059 32.6214 56.11 29.4255C52.914 26.2295 48.8714 24.3959 44.7041 23.9248V2.66867ZM32.012 32.4769C37.8238 26.665 47.2467 26.665 53.0586 32.4769C58.8704 38.2887 58.8704 47.7116 53.0586 53.5235C47.2467 59.3353 37.8238 59.3353 32.012 53.5235C26.2001 47.7116 26.2001 38.2887 32.012 32.4769Z" fill="#AC61FF"/>
<path d="M58.7473 23.721C57.9004 24.568 57.9004 25.9411 58.7473 26.788C59.5942 27.6349 60.9673 27.6349 61.8142 26.788L74.9586 13.6436C75.8055 12.7967 75.8055 11.4236 74.9586 10.5766C74.1117 9.72973 72.7386 9.72973 71.8917 10.5766L58.7473 23.721Z" fill="#AC61FF"/>
<path d="M10.1126 72.3554C9.26571 73.2023 9.26571 74.5754 10.1126 75.4223C10.9595 76.2693 12.3327 76.2693 13.1796 75.4223L26.5432 62.0587C27.3901 61.2118 27.3901 59.8387 26.5432 58.9917C25.6963 58.1448 24.3232 58.1448 23.4763 58.9917L10.1126 72.3554Z" fill="#AC61FF"/>
</svg>
