<svg width="137" height="51" viewBox="0 0 137 51" fill="none" xmlns="http://www.w3.org/2000/svg">
<path d="M15.3956 4.3532C15.9027 3.84613 16.7248 3.84613 17.2319 4.3532L21.3636 8.48488C21.8706 8.99195 21.8706 9.81407 21.3636 10.3211C20.8565 10.8282 20.0344 10.8282 19.5273 10.3211L15.3956 6.18946C14.8886 5.68239 14.8886 4.86027 15.3956 4.3532Z" fill="#AC61FF"/>
<path d="M5.2639 14.4849C4.75683 14.992 4.75683 15.8141 5.2639 16.3212L9.39558 20.4529C9.90265 20.9599 10.7248 20.9599 11.2318 20.4529C11.7389 19.9458 11.7389 19.1237 11.2318 18.6166L7.10016 14.4849C6.59309 13.9779 5.77097 13.9779 5.2639 14.4849Z" fill="#AC61FF"/>
<path d="M15.3956 4.3532C15.9027 3.84613 16.7248 3.84613 17.2319 4.3532L21.3636 8.48488C21.8706 8.99195 21.8706 9.81407 21.3636 10.3211C20.8565 10.8282 20.0344 10.8282 19.5273 10.3211L15.3956 6.18946C14.8886 5.68239 14.8886 4.86027 15.3956 4.3532Z" fill="#AC61FF"/>
<path d="M5.2639 14.4849C4.75683 14.992 4.75683 15.8141 5.2639 16.3212L9.39558 20.4529C9.90265 20.9599 10.7248 20.9599 11.2318 20.4529C11.7389 19.9458 11.7389 19.1237 11.2318 18.6166L7.10016 14.4849C6.59309 13.9779 5.77097 13.9779 5.2639 14.4849Z" fill="#AC61FF"/>
<path d="M31.4569 40.6786C30.9499 41.1856 30.9499 42.0078 31.4569 42.5148L35.5886 46.6465C36.0957 47.1536 36.9178 47.1536 37.4249 46.6465C37.9319 46.1394 37.9319 45.3173 37.4249 44.8103L33.2932 40.6786C32.7861 40.1715 31.964 40.1715 31.4569 40.6786Z" fill="#AC61FF"/>
<path d="M41.5888 30.5468C42.0959 30.0398 42.918 30.0398 43.4251 30.5468L47.5568 34.6785C48.0639 35.1856 48.0639 36.0077 47.5568 36.5148C47.0497 37.0219 46.2276 37.0219 45.7205 36.5148L41.5888 32.3831C41.0818 31.876 41.0818 31.0539 41.5888 30.5468Z" fill="#AC61FF"/>
<path d="M41.5888 30.5468C42.0959 30.0398 42.918 30.0398 43.4251 30.5468L47.5568 34.6785C48.0639 35.1856 48.0639 36.0077 47.5568 36.5148C47.0497 37.0219 46.2276 37.0219 45.7205 36.5148L41.5888 32.3831C41.0818 31.876 41.0818 31.0539 41.5888 30.5468Z" fill="#AC61FF"/>
<path d="M31.4569 40.6786C30.9499 41.1856 30.9499 42.0078 31.4569 42.5148L35.5886 46.6465C36.0957 47.1536 36.9178 47.1536 37.4249 46.6465C37.9319 46.1394 37.9319 45.3173 37.4249 44.8103L33.2932 40.6786C32.7861 40.1715 31.964 40.1715 31.4569 40.6786Z" fill="#AC61FF"/>
<path fill-rule="evenodd" clip-rule="evenodd" d="M22.5845 21.6747C24.6975 19.5617 28.1234 19.5617 30.2364 21.6747C32.3494 23.7877 32.3494 27.2136 30.2364 29.3266C28.1234 31.4396 24.6975 31.4396 22.5845 29.3266C20.4714 27.2136 20.4714 23.7877 22.5845 21.6747ZM28.4094 23.5016C27.3054 22.3976 25.5154 22.3976 24.4114 23.5016C23.3074 24.6057 23.3074 26.3956 24.4114 27.4996C25.5154 28.6037 27.3054 28.6037 28.4094 27.4996C29.5134 26.3956 29.5134 24.6057 28.4094 23.5016Z" fill="#AC61FF"/>
<path fill-rule="evenodd" clip-rule="evenodd" d="M27.7089 1.35312C27.7089 0.636016 27.1276 0.0546875 26.4105 0.0546875C25.6934 0.0546875 25.112 0.636016 25.112 1.35312L25.112 14.0797C23.0218 14.3159 20.9839 15.1247 19.2526 16.506L8.83445 6.08784C8.32738 5.58077 7.50526 5.58078 6.99819 6.08785C6.49112 6.59492 6.49112 7.41704 6.99819 7.92411L17.4163 18.3422C16.0348 20.0736 15.2259 22.1115 14.9895 24.2019H2.26327C1.54617 24.2019 0.964844 24.7832 0.964844 25.5003C0.964844 26.2174 1.54617 26.7987 2.26328 26.7987H14.9895C15.2715 29.294 16.3693 31.7145 18.2829 33.6281C20.1965 35.5417 22.6169 36.6395 25.112 36.9215V49.6478C25.112 50.3649 25.6934 50.9462 26.4105 50.9462C27.1276 50.9462 27.7089 50.3649 27.7089 49.6478V36.9215C29.7994 36.6852 31.8374 35.8763 33.5688 34.4947L43.9866 44.9125C44.4936 45.4196 45.3158 45.4196 45.8228 44.9125C46.3299 44.4054 46.3299 43.5833 45.8228 43.0762L35.405 32.6584C36.7863 30.927 37.5951 28.8891 37.8314 26.7987H50.558C51.2751 26.7987 51.8564 26.2174 51.8564 25.5003C51.8564 24.7832 51.2751 24.2019 50.558 24.2019L37.8313 24.2019C37.5492 21.7069 36.4514 19.2866 34.5379 17.3731C32.6244 15.4595 30.204 14.3617 27.7089 14.0797V1.35312ZM20.1099 19.2C23.5896 15.7203 29.2313 15.7203 32.711 19.2C36.1907 22.6797 36.1907 28.3215 32.711 31.8012C29.2313 35.2809 23.5896 35.2809 20.1099 31.8012C16.6302 28.3215 16.6302 22.6797 20.1099 19.2Z" fill="#AC61FF"/>
<path d="M36.1169 13.9577C35.6099 14.4648 35.6099 15.2869 36.1169 15.794C36.624 16.301 37.4461 16.301 37.9532 15.794L45.8231 7.92408C46.3301 7.41702 46.3301 6.59489 45.8231 6.08782C45.316 5.58075 44.4939 5.58075 43.9868 6.08782L36.1169 13.9577Z" fill="#AC61FF"/>
<path d="M6.99818 43.0763C6.49111 43.5833 6.49111 44.4055 6.99818 44.9125C7.50525 45.4196 8.32737 45.4196 8.83444 44.9125L16.8356 36.9114C17.3426 36.4043 17.3426 35.5822 16.8356 35.0751C16.3285 34.5681 15.5064 34.5681 14.9993 35.0751L6.99818 43.0763Z" fill="#AC61FF"/>
<path d="M60.7661 33.6353V17.5031H69.5466C70.6068 17.5031 71.5593 17.7336 72.4043 18.1945C73.2494 18.6554 73.9177 19.2853 74.4093 20.0843C74.9164 20.8832 75.1699 21.782 75.1699 22.7806C75.1699 23.8561 74.901 24.8164 74.3632 25.6614C73.8409 26.5064 73.1341 27.1747 72.243 27.6664C71.3673 28.1427 70.3686 28.3808 69.247 28.3808H64.6839V33.6353H60.7661ZM64.6148 24.947H68.5787C69.0396 24.947 69.4545 24.8548 69.8232 24.6704C70.2073 24.486 70.5069 24.2402 70.722 23.9329C70.9524 23.6103 71.0677 23.2492 71.0677 22.8498C71.0677 22.4503 70.9524 22.1123 70.722 21.8358C70.5069 21.5592 70.2073 21.3441 69.8232 21.1905C69.4545 21.0368 69.0396 20.96 68.5787 20.96H64.6148V24.947Z" fill="black"/>
<path d="M83.497 33.8888C82.4676 33.8888 81.5688 33.666 80.8006 33.2205C80.0478 32.7596 79.464 32.0989 79.0491 31.2385C78.6497 30.3628 78.4499 29.3103 78.4499 28.0812V21.3979H82.1373V27.4129C82.1373 28.1196 82.2295 28.7111 82.4139 29.1874C82.6136 29.6637 82.9209 30.0248 83.3357 30.2706C83.7505 30.5164 84.2806 30.6393 84.9259 30.6393C85.3714 30.6393 85.7863 30.5702 86.1704 30.4319C86.5545 30.2936 86.8925 30.0939 87.1844 29.8327C87.4917 29.5715 87.7298 29.2642 87.8988 28.9109C88.0678 28.5421 88.1523 28.1273 88.1523 27.6664V21.3979H91.8397V33.6353H88.3828L88.2215 31.1233L88.8898 30.8467C88.7054 31.3691 88.3674 31.8608 87.8758 32.3217C87.3841 32.7826 86.7619 33.159 86.009 33.4509C85.2716 33.7429 84.4342 33.8888 83.497 33.8888Z" fill="black"/>
<path d="M95.5227 33.6353L94.67 31.4229L99.4636 26.975C99.863 26.6216 100.278 26.2375 100.708 25.8227C101.138 25.4079 101.53 24.9931 101.883 24.5782C102.252 24.148 102.544 23.7332 102.759 23.3337C102.974 22.9343 103.082 22.5655 103.082 22.2275C103.082 21.9049 103.005 21.6207 102.851 21.3748C102.698 21.129 102.467 20.937 102.16 20.7987C101.868 20.6604 101.507 20.5913 101.077 20.5913C100.647 20.5913 100.216 20.6758 99.7862 20.8448C99.3714 21.0138 98.9642 21.2903 98.5648 21.6744C98.1807 22.0432 97.8043 22.5271 97.4355 23.1263L94.5548 21.467C95.0157 20.6527 95.5842 19.9153 96.2602 19.2546C96.9516 18.594 97.7428 18.0793 98.6339 17.7105C99.525 17.3264 100.485 17.1344 101.515 17.1344C102.575 17.1344 103.512 17.3341 104.326 17.7336C105.156 18.133 105.801 18.6785 106.262 19.3698C106.738 20.0612 106.977 20.8601 106.977 21.7666C106.977 22.2275 106.9 22.6885 106.746 23.1494C106.608 23.5949 106.393 24.0405 106.101 24.486C105.824 24.9162 105.502 25.3541 105.133 25.7997C104.78 26.2452 104.388 26.6831 103.958 27.1133C103.527 27.5281 103.082 27.9506 102.621 28.3808L98.4956 32.1373L98.3113 30.1784H107.691V33.6353H95.5227Z" fill="black"/>
<path d="M115.143 33.8658C113.591 33.8658 112.262 33.5508 111.156 32.9209C110.05 32.2756 109.105 31.3768 108.322 30.2245L111.133 28.1965C111.41 28.6113 111.74 29.0031 112.124 29.3718C112.508 29.7405 112.946 30.0401 113.438 30.2706C113.945 30.501 114.506 30.6163 115.12 30.6163C115.704 30.6163 116.242 30.5395 116.733 30.3858C117.225 30.2168 117.624 29.9633 117.932 29.6253C118.239 29.2873 118.393 28.8648 118.393 28.3578C118.393 27.8508 118.247 27.4513 117.955 27.1594C117.663 26.8521 117.286 26.6293 116.825 26.491C116.38 26.3528 115.919 26.2836 115.443 26.2836C115.182 26.2836 114.92 26.3067 114.659 26.3528C114.413 26.3835 114.175 26.4296 113.945 26.491C113.73 26.5525 113.53 26.6293 113.346 26.7215L112.378 24.5552L117.033 20.1304L117.655 20.7987L109.451 20.6604V17.3648H120.835L121.573 19.3468L115.489 25.1083L114.567 23.5642C114.736 23.5027 114.997 23.4567 115.351 23.4259C115.719 23.3798 116.103 23.3568 116.503 23.3568C117.225 23.3568 117.916 23.4797 118.577 23.7255C119.238 23.9714 119.821 24.317 120.328 24.7626C120.851 25.2082 121.258 25.7305 121.55 26.3297C121.857 26.9289 122.011 27.5742 122.011 28.2656C122.011 29.3718 121.704 30.3474 121.089 31.1924C120.474 32.0374 119.645 32.6981 118.6 33.1744C117.571 33.6353 116.418 33.8658 115.143 33.8658Z" fill="black"/>
<path d="M127.662 33.6353L127.57 33.4048L133.631 23.2185L134.161 24.463C133.946 24.9854 133.646 25.4847 133.262 25.961C132.878 26.4219 132.432 26.8291 131.925 27.1824C131.418 27.5204 130.881 27.7893 130.312 27.989C129.759 28.1888 129.191 28.2886 128.607 28.2886C127.639 28.2886 126.763 28.0505 125.98 27.5742C125.196 27.0826 124.566 26.4373 124.09 25.6383C123.629 24.8394 123.398 23.979 123.398 23.0572C123.398 21.9356 123.69 20.9293 124.274 20.0382C124.873 19.1317 125.672 18.4173 126.671 17.8949C127.67 17.3725 128.784 17.1113 130.013 17.1113C130.888 17.1113 131.71 17.2573 132.479 17.5492C133.247 17.8411 133.93 18.2483 134.53 18.7706C135.129 19.2777 135.59 19.8692 135.912 20.5452C136.25 21.2058 136.419 21.9203 136.419 22.6885C136.419 23.303 136.335 23.9176 136.166 24.5321C136.012 25.1467 135.79 25.7536 135.498 26.3528C135.221 26.952 134.921 27.5281 134.599 28.0812C134.292 28.619 133.992 29.1337 133.7 29.6253L131.372 33.6353H127.662ZM129.759 25.1774C130.404 25.1774 130.958 25.0699 131.418 24.8548C131.879 24.6243 132.233 24.3324 132.479 23.979C132.724 23.6103 132.847 23.2185 132.847 22.8037C132.847 22.3581 132.717 21.951 132.456 21.5823C132.21 21.1982 131.856 20.8986 131.395 20.6835C130.95 20.453 130.412 20.3378 129.782 20.3378C129.244 20.3378 128.745 20.4376 128.284 20.6374C127.839 20.8217 127.478 21.0983 127.201 21.467C126.924 21.8358 126.786 22.2813 126.786 22.8037C126.786 23.1878 126.909 23.5642 127.155 23.9329C127.416 24.3017 127.77 24.6013 128.215 24.8317C128.661 25.0622 129.175 25.1774 129.759 25.1774Z" fill="black"/>
</svg>
